<svg width="1811" height="169" viewBox="0 0 1811 169" fill="none" xmlns="http://www.w3.org/2000/svg">
<path d="M1741.76 168.047H1711.29V84.0234C1711.29 80.0391 1710.23 77.0312 1708.12 75C1706.02 72.8906 1702.89 71.8359 1698.75 71.8359H1659.14V168.047H1628.67V56.4844C1628.67 54.375 1629.06 52.4219 1629.84 50.625C1630.62 48.75 1631.72 47.1484 1633.12 45.8203C1634.53 44.4141 1636.17 43.3203 1638.05 42.5391C1639.92 41.7578 1641.91 41.3672 1644.02 41.3672H1698.98C1703.2 41.3672 1707.73 42.1094 1712.58 43.5938C1717.42 45.0781 1722.03 47.4609 1726.41 50.7422V41.3672H1767.66C1770.55 41.3672 1773.59 41.7188 1776.8 42.4219C1780 43.0469 1783.16 44.0625 1786.29 45.4688C1789.49 46.875 1792.54 48.7109 1795.43 50.9766C1798.32 53.1641 1800.86 55.8594 1803.05 59.0625C1805.23 62.1875 1806.99 65.8203 1808.32 69.9609C1809.65 74.1016 1810.31 78.7891 1810.31 84.0234V168.047H1779.84V84.0234C1779.84 80.0391 1778.83 77.0312 1776.8 75C1774.84 72.8906 1771.8 71.8359 1767.66 71.8359H1740.23C1741.25 75.5859 1741.76 79.6484 1741.76 84.0234V168.047Z" fill="white"/>
<path d="M1602.66 126.094C1602.66 130.312 1601.91 134.883 1600.43 139.805C1598.95 144.648 1596.52 149.18 1593.16 153.398C1589.88 157.539 1585.55 161.016 1580.16 163.828C1574.84 166.641 1568.36 168.047 1560.7 168.047H1505.74C1501.52 168.047 1496.95 167.305 1492.03 165.82C1487.19 164.336 1482.66 161.953 1478.44 158.672C1474.3 155.312 1470.82 150.977 1468.01 145.664C1465.2 140.273 1463.79 133.75 1463.79 126.094C1463.79 121.875 1464.53 117.305 1466.02 112.383C1467.5 107.461 1469.88 102.93 1473.16 98.7891C1476.52 94.5703 1480.86 91.0547 1486.17 88.2422C1491.56 85.4297 1498.09 84.0234 1505.74 84.0234H1560.7V113.086H1505.74C1501.6 113.086 1498.4 114.375 1496.13 116.953C1493.87 119.453 1492.73 122.578 1492.73 126.328C1492.73 130.312 1494.02 133.438 1496.6 135.703C1499.26 137.891 1502.38 138.984 1505.98 138.984H1560.7C1564.84 138.984 1568.05 137.734 1570.31 135.234C1572.58 132.734 1573.71 129.609 1573.71 125.859V83.3203C1573.71 79.3359 1572.46 76.1719 1569.96 73.8281C1567.54 71.4844 1564.45 70.3125 1560.7 70.3125H1493.79V41.3672H1560.7C1564.92 41.3672 1569.45 42.1094 1574.3 43.5938C1579.22 45.0781 1583.75 47.5 1587.89 50.8594C1592.11 54.1406 1595.62 58.4766 1598.44 63.8672C1601.25 69.1797 1602.66 75.6641 1602.66 83.3203V126.094Z" fill="white"/>
<path d="M1452.3 83.3203C1452.3 87.5391 1451.56 92.1094 1450.08 97.0312C1448.59 101.875 1446.17 106.406 1442.81 110.625C1439.53 114.766 1435.2 118.242 1429.8 121.055C1424.49 123.867 1418.01 125.273 1410.35 125.273H1355.39V96.3281H1410.35C1414.49 96.3281 1417.7 95.0781 1419.96 92.5781C1422.23 90 1423.36 86.8359 1423.36 83.0859C1423.36 79.1016 1422.07 75.9766 1419.49 73.7109C1416.99 71.4453 1413.95 70.3125 1410.35 70.3125H1355.39C1351.25 70.3125 1348.05 71.6016 1345.78 74.1797C1343.52 76.6797 1342.38 79.8047 1342.38 83.5547V126.094C1342.38 130.156 1343.63 133.32 1346.13 135.586C1348.71 137.852 1351.88 138.984 1355.62 138.984H1410.35V168.047H1355.39C1351.17 168.047 1346.6 167.305 1341.68 165.82C1336.84 164.336 1332.3 161.953 1328.09 158.672C1323.95 155.312 1320.47 150.977 1317.66 145.664C1314.84 140.273 1313.44 133.75 1313.44 126.094V83.3203C1313.44 79.1016 1314.18 74.5703 1315.66 69.7266C1317.15 64.8047 1319.53 60.2734 1322.81 56.1328C1326.17 51.9141 1330.51 48.3984 1335.82 45.5859C1341.21 42.7734 1347.73 41.3672 1355.39 41.3672H1410.35C1414.57 41.3672 1419.1 42.1094 1423.95 43.5938C1428.87 45.0781 1433.4 47.5 1437.54 50.8594C1441.76 54.1406 1445.27 58.4766 1448.09 63.8672C1450.9 69.1797 1452.3 75.6641 1452.3 83.3203Z" fill="white"/>
<path d="M1296.33 71.8359H1227.77C1223.63 71.8359 1220.51 72.8906 1218.4 75C1216.29 77.0312 1215.23 80.0391 1215.23 84.0234V168.047H1184.77V84.0234C1184.77 78.7891 1185.43 74.1016 1186.76 69.9609C1188.09 65.8203 1189.84 62.1875 1192.03 59.0625C1194.3 55.8594 1196.88 53.1641 1199.77 50.9766C1202.66 48.7109 1205.66 46.875 1208.79 45.4688C1211.99 44.0625 1215.2 43.0469 1218.4 42.4219C1221.68 41.7188 1224.73 41.3672 1227.54 41.3672H1296.33V71.8359Z" fill="white"/>
<path d="M1160.27 168.047H1077.66C1073.44 168.047 1068.83 167.305 1063.83 165.82C1058.83 164.336 1054.18 161.914 1049.88 158.555C1045.66 155.117 1042.11 150.703 1039.22 145.312C1036.41 139.844 1035 133.164 1035 125.273V84.0234C1035 81.1328 1035.31 78.0859 1035.94 74.8828C1036.64 71.6797 1037.7 68.5156 1039.1 65.3906C1040.51 62.1875 1042.3 59.1406 1044.49 56.25C1046.76 53.3594 1049.45 50.8203 1052.58 48.6328C1055.78 46.4453 1059.45 44.6875 1063.59 43.3594C1067.73 42.0312 1072.42 41.3672 1077.66 41.3672H1160.27V71.8359H1077.66C1073.67 71.8359 1070.62 72.8516 1068.52 74.8828C1066.48 76.9141 1065.47 80.0391 1065.47 84.2578V125.273C1065.47 129.258 1066.52 132.305 1068.63 134.414C1070.74 136.523 1073.83 137.578 1077.89 137.578H1160.27V168.047Z" fill="white"/>
<path d="M1015.66 118.594C1015.66 124.609 1014.88 130.039 1013.32 134.883C1011.84 139.648 1009.84 143.867 1007.34 147.539C1004.84 151.211 1001.91 154.336 998.555 156.914C995.195 159.492 991.719 161.602 988.125 163.242C984.531 164.883 980.859 166.094 977.109 166.875C973.438 167.656 969.961 168.047 966.68 168.047H849.141V137.578H966.68C972.539 137.578 977.07 135.859 980.273 132.422C983.555 128.984 985.195 124.375 985.195 118.594C985.195 115.781 984.766 113.203 983.906 110.859C983.047 108.516 981.797 106.484 980.156 104.766C978.594 103.047 976.641 101.719 974.297 100.781C972.031 99.8438 969.492 99.375 966.68 99.375H896.602C891.68 99.375 886.367 98.5156 880.664 96.7969C874.961 95 869.648 92.1484 864.727 88.2422C859.883 84.3359 855.82 79.2188 852.539 72.8906C849.336 66.5625 847.734 58.8281 847.734 49.6875C847.734 40.5469 849.336 32.8516 852.539 26.6016C855.82 20.2734 859.883 15.1562 864.727 11.25C869.648 7.26562 874.961 4.41406 880.664 2.69531C886.367 0.898438 891.68 0 896.602 0H1000.31V30.4688H896.602C890.82 30.4688 886.289 32.2266 883.008 35.7422C879.805 39.2578 878.203 43.9062 878.203 49.6875C878.203 55.5469 879.805 60.1953 883.008 63.6328C886.289 66.9922 890.82 68.6719 896.602 68.6719H966.68H966.914C970.195 68.75 973.672 69.2188 977.344 70.0781C981.016 70.8594 984.648 72.1094 988.242 73.8281C991.914 75.5469 995.391 77.7344 998.672 80.3906C1001.95 82.9688 1004.84 86.0938 1007.34 89.7656C1009.92 93.4375 1011.95 97.6562 1013.44 102.422C1014.92 107.188 1015.66 112.578 1015.66 118.594Z" fill="white"/>
<path d="M830.625 71.8359H762.07C757.93 71.8359 754.805 72.8906 752.695 75C750.586 77.0312 749.531 80.0391 749.531 84.0234V168.047H719.062V84.0234C719.062 78.7891 719.727 74.1016 721.055 69.9609C722.383 65.8203 724.141 62.1875 726.328 59.0625C728.594 55.8594 731.172 53.1641 734.062 50.9766C736.953 48.7109 739.961 46.875 743.086 45.4688C746.289 44.0625 749.492 43.0469 752.695 42.4219C755.977 41.7188 759.023 41.3672 761.836 41.3672H830.625V71.8359Z" fill="white"/>
<path d="M699.258 83.3203C699.258 87.5391 698.516 92.1094 697.031 97.0312C695.547 101.875 693.125 106.406 689.766 110.625C686.484 114.766 682.148 118.242 676.758 121.055C671.445 123.867 664.961 125.273 657.305 125.273H602.344V96.3281H657.305C661.445 96.3281 664.648 95.0781 666.914 92.5781C669.18 90 670.312 86.8359 670.312 83.0859C670.312 79.1016 669.023 75.9766 666.445 73.7109C663.945 71.4453 660.898 70.3125 657.305 70.3125H602.344C598.203 70.3125 595 71.6016 592.734 74.1797C590.469 76.6797 589.336 79.8047 589.336 83.5547V126.094C589.336 130.156 590.586 133.32 593.086 135.586C595.664 137.852 598.828 138.984 602.578 138.984H657.305V168.047H602.344C598.125 168.047 593.555 167.305 588.633 165.82C583.789 164.336 579.258 161.953 575.039 158.672C570.898 155.312 567.422 150.977 564.609 145.664C561.797 140.273 560.391 133.75 560.391 126.094V83.3203C560.391 79.1016 561.133 74.5703 562.617 69.7266C564.102 64.8047 566.484 60.2734 569.766 56.1328C573.125 51.9141 577.461 48.3984 582.773 45.5859C588.164 42.7734 594.688 41.3672 602.344 41.3672H657.305C661.523 41.3672 666.055 42.1094 670.898 43.5938C675.82 45.0781 680.352 47.5 684.492 50.8594C688.711 54.1406 692.227 58.4766 695.039 63.8672C697.852 69.1797 699.258 75.6641 699.258 83.3203Z" fill="white"/>
<path d="M466.289 168.047H435.82V84.0234C435.82 80.0391 434.766 77.0312 432.656 75C430.547 72.8906 427.422 71.8359 423.281 71.8359H383.672V168.047H353.203V56.4844C353.203 54.375 353.594 52.4219 354.375 50.625C355.156 48.75 356.25 47.1484 357.656 45.8203C359.062 44.4141 360.703 43.3203 362.578 42.5391C364.453 41.7578 366.445 41.3672 368.555 41.3672H423.516C427.734 41.3672 432.266 42.1094 437.109 43.5938C441.953 45.0781 446.562 47.4609 450.938 50.7422V41.3672H492.188C495.078 41.3672 498.125 41.7188 501.328 42.4219C504.531 43.0469 507.695 44.0625 510.82 45.4688C514.023 46.875 517.07 48.7109 519.961 50.9766C522.852 53.1641 525.391 55.8594 527.578 59.0625C529.766 62.1875 531.523 65.8203 532.852 69.9609C534.18 74.1016 534.844 78.7891 534.844 84.0234V168.047H504.375V84.0234C504.375 80.0391 503.359 77.0312 501.328 75C499.375 72.8906 496.328 71.8359 492.188 71.8359H464.766C465.781 75.5859 466.289 79.6484 466.289 84.0234V168.047Z" fill="white"/>
<path d="M327.188 126.094C327.188 130.312 326.445 134.883 324.961 139.805C323.477 144.648 321.055 149.18 317.695 153.398C314.414 157.539 310.078 161.016 304.688 163.828C299.375 166.641 292.891 168.047 285.234 168.047H230.273C226.055 168.047 221.484 167.305 216.562 165.82C211.719 164.336 207.188 161.953 202.969 158.672C198.828 155.312 195.352 150.977 192.539 145.664C189.727 140.273 188.32 133.75 188.32 126.094C188.32 121.875 189.062 117.305 190.547 112.383C192.031 107.461 194.414 102.93 197.695 98.7891C201.055 94.5703 205.391 91.0547 210.703 88.2422C216.094 85.4297 222.617 84.0234 230.273 84.0234H285.234V113.086H230.273C226.133 113.086 222.93 114.375 220.664 116.953C218.398 119.453 217.266 122.578 217.266 126.328C217.266 130.312 218.555 133.438 221.133 135.703C223.789 137.891 226.914 138.984 230.508 138.984H285.234C289.375 138.984 292.578 137.734 294.844 135.234C297.109 132.734 298.242 129.609 298.242 125.859V83.3203C298.242 79.3359 296.992 76.1719 294.492 73.8281C292.07 71.4844 288.984 70.3125 285.234 70.3125H218.32V41.3672H285.234C289.453 41.3672 293.984 42.1094 298.828 43.5938C303.75 45.0781 308.281 47.5 312.422 50.8594C316.641 54.1406 320.156 58.4766 322.969 63.8672C325.781 69.1797 327.188 75.6641 327.188 83.3203V126.094Z" fill="white"/>
<path d="M168.047 152.695C168.047 154.883 167.656 156.914 166.875 158.789C166.094 160.664 165 162.305 163.594 163.711C162.266 165.039 160.664 166.094 158.789 166.875C156.914 167.656 154.883 168.047 152.695 168.047H42.7734C39.9609 168.047 36.9141 167.734 33.6328 167.109C30.4297 166.406 27.2266 165.352 24.0234 163.945C20.8984 162.539 17.8906 160.742 15 158.555C12.1094 156.289 9.53125 153.594 7.26562 150.469C5.07812 147.266 3.32031 143.594 1.99219 139.453C0.664062 135.234 0 130.508 0 125.273V42.7734C0 39.9609 0.3125 36.9531 0.9375 33.75C1.64062 30.4688 2.69531 27.2656 4.10156 24.1406C5.50781 20.9375 7.34375 17.8906 9.60938 15C11.875 12.1094 14.5703 9.57031 17.6953 7.38281C20.8984 5.11719 24.5703 3.32031 28.7109 1.99219C32.8516 0.664062 37.5391 0 42.7734 0H166.641V30.4688H42.7734C38.7891 30.4688 35.7422 31.5234 33.6328 33.6328C31.5234 35.7422 30.4688 38.8672 30.4688 43.0078V125.273C30.4688 129.18 31.5234 132.227 33.6328 134.414C35.8203 136.523 38.8672 137.578 42.7734 137.578H137.578V99.375H56.4844V68.6719H152.695C154.883 68.6719 156.914 69.1016 158.789 69.9609C160.664 70.7422 162.266 71.8359 163.594 73.2422C165 74.6484 166.094 76.2891 166.875 78.1641C167.656 79.9609 168.047 81.9141 168.047 84.0234V152.695Z" fill="white"/>
</svg>
